<svg width="115.16" height="140.83" version="1.1" viewBox="0 0 30.47 37.26" xmlns="http://www.w3.org/2000/svg">
 <g transform="translate(-47.211 -209.15)">
  <g transform="matrix(.01 0 0 .01 -50.929 132.73)" clip-rule="evenodd" fill-rule="evenodd" image-rendering="optimizeQuality" shape-rendering="geometricPrecision">
   <polygon points="11299 11053 11283 11041 11808 10307 11824 10319" fill="#d61a3b" fill-rule="nonzero"/>
   <path d="m12333 7728-1030 1213c-8 11-24 12-35 3-7-6-10-16-8-25l159-785c2-7 7-14 14-17l870-428c12-6 27-1 33 12 5 9 3 19-3 27zm-608 639 492-580-751 369-138 679z" fill="#319b87" fill-rule="nonzero"/>
   <path d="m10762 8255 467 573-64-370zm488 678-600-737c-7-7-9-18-4-28 6-12 21-17 34-11l517 262c8 3 13 10 15 19l82 475c2 9-1 18-9 24-10 9-26 7-35-4z" fill="#319b87" fill-rule="nonzero"/>
   <path d="m11273 8947-468-217c-8-4-12-10-14-18l-147-526c-3-13 4-27 18-30 10-3 20 0 26 8l616 745c8 11 7 27-4 35-8 7-18 8-27 3zm-437-258 359 167-471-570z" fill="#319b87" fill-rule="nonzero"/>
   <path d="m11390 8840 486-265 334-702zm517-225-610 331c-8 6-20 5-29-2-10-9-11-24-3-35l1030-1213c7-9 19-12 30-7 12 6 17 21 11 33l-418 882c-2 4-6 8-11 11z" fill="#319b87" fill-rule="nonzero"/>
   <path d="m11444 8209c38 0 70-31 70-70 0-38-32-70-70-70-39 0-70 32-70 70 0 39 31 70 70 70z" fill="#319b87"/>
   <path d="m11187 8512c39 0 70-31 70-70s-31-70-70-70c-38 0-70 31-70 70s32 70 70 70z" fill="#319b87"/>
   <path d="m11637 8580c38 0 70-31 70-70s-32-70-70-70c-39 0-70 31-70 70s31 70 70 70z" fill="#319b87"/>
   <path d="m10668 8250c39 0 70-32 70-70 0-39-31-70-70-70-38 0-70 31-70 70 0 38 32 70 70 70z" fill="#319b87"/>
   <path d="m10815 8777c39 0 70-31 70-70s-31-70-70-70c-38 0-70 31-70 70s32 70 70 70z" fill="#319b87"/>
   <path d="m11895 8663c39 0 70-31 70-70 0-38-31-70-70-70-38 0-70 32-70 70 0 39 32 70 70 70z" fill="#319b87"/>
   <path d="m12314 7782c39 0 70-32 70-70 0-39-31-70-70-70s-70 31-70 70c0 38 31 70 70 70z" fill="#319b87"/>
   <polygon points="11614 8522 11421 8151 11466 8128 11659 8499" fill="#319b87" fill-rule="nonzero"/>
   <line x1="11895" x2="11637" y1="8593" y2="8510" fill="none"/>
   <path d="m11270 9009c50 0 91-41 91-91 0-51-41-92-91-92-51 0-92 41-92 92 0 50 41 91 92 91z" fill="#319b87"/>
   <polygon points="11640 8501 11898 8584 11892 8603 11634 8520" fill="#319b87" fill-rule="nonzero"/>
   <polygon points="10809 8699 11181 8434 11193 8450 10821 8715" fill="#319b87" fill-rule="nonzero"/>
   <polygon points="10685 9744 11287 9470 11295 9489 10701 9758 10519 10315 10500 10308" fill="#d61a3b" fill-rule="nonzero"/>
   <polygon points="10510 11073 10460 11072 10484 10311 10534 10312" fill="#d61a3b" fill-rule="nonzero"/>
   <path d="m12054 9168c54 0 97-44 97-97 0-54-43-97-97-97s-97 43-97 97c0 53 43 97 97 97z" fill="#d61a3b"/>
   <path d="m12220 11130c56 0 101-46 101-102s-45-101-101-101-101 45-101 101 45 102 101 102z" fill="#d61a3b"/>
   <path d="m11669 11368c39 0 70-32 70-70 0-39-31-70-70-70s-70 31-70 70c0 38 31 70 70 70z" fill="#d61a3b"/>
   <path d="m10485 11143c39 0 70-32 70-70 0-39-31-70-70-70s-70 31-70 70c0 38 31 70 70 70z" fill="#d61a3b"/>
   <path d="m10509 10435c68 0 123-55 123-124 0-68-55-123-123-123s-123 55-123 123c0 69 55 124 123 124z" fill="#d61a3b"/>
   <path d="m11291 9549c38 0 70-31 70-70 0-38-32-70-70-70-39 0-70 32-70 70 0 39 31 70 70 70z" fill="#d61a3b"/>
   <path d="m9884 9826c38 0 70-31 70-70 0-38-32-70-70-70-39 0-70 32-70 70 0 39 31 70 70 70z" fill="#d61a3b"/>
   <path d="m11816 10484c94 0 171-77 171-171s-77-171-171-171-171 77-171 171 77 171 171 171z" fill="#d61a3b"/>
   <path d="m11108 10338c59 0 107-48 107-107s-48-107-107-107-107 48-107 107 48 107 107 107z" fill="#d61a3b"/>
   <path d="m10693 9821c39 0 70-31 70-70s-31-70-70-70c-38 0-70 31-70 70s32 70 70 70z" fill="#d61a3b"/>
   <path d="m10899 11357c37 0 67-30 67-66 0-37-30-67-67-67s-67 30-67 67c0 36 30 66 67 66z" fill="#d61a3b"/>
   <path d="m12698 9928c90 0 163-73 163-164 0-90-73-163-163-163-91 0-164 73-164 163 0 91 73 164 164 164z" fill="#d61a3b"/>
   <path d="m10510 9228c55 0 99-44 99-100 0-55-44-99-99-99-56 0-100 44-100 99 0 56 44 100 100 100z" fill="#d61a3b"/>
   <path d="m9839 9776c-10-9-12-25-3-36 9-10 25-11 35-2l646 547 542-73-385-445c-9-10-7-26 3-35s26-8 35 3l415 479c3 4 5 9 6 14 2 13-8 26-22 28l-598 80c-7 1-14-1-20-6z" fill="#d61a3b" fill-rule="nonzero"/>
   <path d="m12242 11016c6 12 2 27-10 34s-27 3-34-9l-404-716c-6-12-2-27 10-34 12-6 27-2 34 10z" fill="#d61a3b" fill-rule="nonzero"/>
   <path d="m11105 10256c-13-2-23-14-22-28 2-14 14-23 28-22l699 81 903-552c12-7 27-3 35 9 7 11 3 27-9 34l-909 556c-5 3-11 5-17 4z" fill="#d61a3b" fill-rule="nonzero"/>
   <path d="m10505 11087c-8 11-24 14-35 6-11-9-13-24-5-35l623-842c8-11 24-13 35-5 5 4 8 9 10 15l182 816c3 13-5 27-19 30-13 2-27-6-29-19l-171-763z" fill="#d61a3b" fill-rule="nonzero"/>
   <path d="m11701 11254 499-244 497-1248-627-640-229 1195zm530-203-551 269c-4 2-9 3-15 2-13-2-23-14-21-28 115-769 239-1461 386-2228 0-5 3-9 7-13 9-10 25-9 35 0l672 686c7 7 9 17 6 27l-506 1270c-2 6-7 12-13 15z" fill="#d61a3b" fill-rule="nonzero"/>
   <path d="m12073 9087-946 1160c-8 10-24 12-35 3-7-6-10-16-8-26l183-750c1-8 6-14 13-17l762-408c12-7 28-2 34 10 5 9 3 20-3 28zm-915 1043 798-978-644 344z" fill="#d61a3b" fill-rule="nonzero"/>
   <path d="m9915 9731 745-5-172-579zm778 45-837 5c-6 1-13-2-18-7-10-9-10-25 0-35l643-657c3-3 7-5 12-7 13-4 27 4 31 17l193 652c1 2 1 4 1 7 0 14-11 25-25 25z" fill="#d61a3b" fill-rule="nonzero"/>
   <path d="m10505 9129-620 633 619 1292 407 215 366-243c9-5 20-5 28 1l366 242 529-259 497-1248-648-660-746 399c-8 4-16 4-23 1zm-667 610 644-657c7-8 19-10 29-5l779 375 751-403c10-5 23-4 31 4l672 686c7 7 9 17 6 27l-506 1270c-2 6-7 12-13 15l-551 269c-8 4-17 3-25-2l-364-241-365 241c-7 5-17 6-25 2l-427-225c-5-3-9-7-11-12l-630-1314c-5-10-3-22 5-30z" fill="#d61a3b" fill-rule="nonzero"/>
  </g>
 </g>
</svg>
